<svg width="256" height="256" viewBox="0 0 256 256" fill="none" xmlns="http://www.w3.org/2000/svg"><path d="M128 8L24 68L128 128L232 68L128 8Z" fill="#00c"/><path d="M128 247.682V128L232 68V188L128 247.682Z" fill="#c00"/><path d="M24 188V68L128 128V248L24 188Z" fill="#fff"/><path d="M24.577 68.2887L128 8.57735L231.423 68.2887V187.711L128 247.423L24.577 187.711V68.2887Z" stroke="#000"/><path d="M25 68.5L128 128" stroke="#000" stroke-linejoin="bevel"/><path d="M60 48L163 107.5" stroke="#000" stroke-linejoin="bevel"/><path d="M95 28L198 87.5" stroke="#000" stroke-linejoin="bevel"/><path d="M25 108L128 167.5" stroke="#000" stroke-linejoin="bevel"/><path d="M25 148L128 207.5" stroke="#000" stroke-linejoin="bevel"/><path d="M128 128V247" stroke="#000" stroke-linejoin="bevel"/><path d="M59 88V207" stroke="#000" stroke-linejoin="bevel"/><path d="M198 87.5V207" stroke="#000" stroke-linejoin="bevel"/><path d="M93 108V227" stroke="#000" stroke-linejoin="bevel"/><path d="M128 128L231 68.5" stroke="#000" stroke-linejoin="bevel"/><path d="M128 207.5L231 147.5" stroke="#000" stroke-linejoin="bevel"/><path d="M128 167.5L231 107.5" stroke="#000" stroke-linejoin="bevel"/><path d="M163 108V227" stroke="#000" stroke-linejoin="bevel"/><path d="M59 88L162 28" stroke="#000" stroke-linejoin="bevel"/><path d="M93 108L195 47" stroke="#000" stroke-linejoin="bevel"/></svg>